# Blender 3.6.2
# www.blender.org
mtllib asteroid_medium.mtl
o Icosphere
v 0.036496 -0.974386 -0.025265
v 0.781145 -0.406841 0.777220
v -0.135675 -0.501719 0.993301
v -1.029220 -0.471336 -0.176674
v -0.428231 -0.552600 -0.969507
v 0.573705 -0.286403 -0.448407
v 0.162473 0.268189 0.818185
v -0.749000 0.450199 0.504891
v -0.678039 0.603826 -0.475788
v 0.273539 0.425234 -0.894292
v 0.961898 0.411687 0.266535
v 0.019586 0.968009 0.007663
vn 0.1944 -0.8768 0.4398
vn 0.7151 -0.6735 -0.1872
vn -0.4414 -0.8401 0.3153
vn -0.3935 -0.8958 -0.2065
vn 0.4674 -0.6984 -0.5420
vn 0.9276 -0.3226 -0.1887
vn 0.2138 0.1372 0.9672
vn -0.7812 -0.1999 0.5914
vn -0.7894 0.0888 -0.6075
vn 0.5015 -0.2975 -0.8124
vn 0.4754 0.3877 0.7897
vn -0.2540 0.3070 0.9172
vn -0.9521 0.3051 -0.0211
vn -0.3339 0.3082 -0.8908
vn 0.8595 0.0435 -0.5092
vn 0.2786 0.7507 0.5990
vn -0.0773 0.7479 0.6593
vn -0.5124 0.8533 0.0966
vn -0.0743 0.8451 -0.5295
vn 0.5452 0.7772 -0.3142
vt 0.181819 0.000000
vt 0.272728 0.157461
vt 0.090910 0.157461
vt 0.363637 0.000000
vt 0.454546 0.157461
vt 0.909091 0.000000
vt 1.000000 0.157461
vt 0.818182 0.157461
vt 0.727273 0.000000
vt 0.636364 0.157461
vt 0.545455 0.000000
vt 0.363637 0.314921
vt 0.181819 0.314921
vt 0.909091 0.314921
vt 0.727273 0.314921
vt 0.545455 0.314921
vt 0.000000 0.314921
vt 0.272728 0.472382
vt 0.090910 0.472382
vt 0.818182 0.472382
vt 0.636364 0.472382
vt 0.454546 0.472382
s 0
usemtl Material
f 1/1/1 2/2/1 3/3/1
f 2/2/2 1/4/2 6/5/2
f 1/6/3 3/7/3 4/8/3
f 1/9/4 4/8/4 5/10/4
f 1/11/5 5/10/5 6/5/5
f 2/2/6 6/5/6 11/12/6
f 3/3/7 2/2/7 7/13/7
f 4/8/8 3/7/8 8/14/8
f 5/10/9 4/8/9 9/15/9
f 6/5/10 5/10/10 10/16/10
f 2/2/11 11/12/11 7/13/11
f 3/3/12 7/13/12 8/17/12
f 4/8/13 8/14/13 9/15/13
f 5/10/14 9/15/14 10/16/14
f 6/5/15 10/16/15 11/12/15
f 7/13/16 11/12/16 12/18/16
f 8/17/17 7/13/17 12/19/17
f 9/15/18 8/14/18 12/20/18
f 10/16/19 9/15/19 12/21/19
f 11/12/20 10/16/20 12/22/20
