# Blender 3.6.2
# www.blender.org
o asteroid_large
v 0.048662 0.965848 0.033687
v 0.800333 0.393388 -0.861059
v -0.088775 0.519891 -1.040864
v -1.074153 0.479376 0.235565
v -0.478850 0.587733 1.009138
v -0.757475 -0.451198 -0.497953
v -0.662860 -0.656034 0.459149
v 0.272594 -0.417912 0.908852
v 0.984390 -0.399845 -0.355380
v 0.026115 -0.957346 -0.010218
v -0.167911 0.857729 -0.495011
v 0.469518 0.847023 -0.352192
v 0.875793 0.767612 -0.189077
v 0.442586 1.009385 0.076472
v -0.383491 0.801633 -0.066980
v -0.859681 0.450397 -0.427178
v -0.324146 0.813398 0.322026
v 0.007743 0.799074 0.897826
v 1.043368 0.127018 0.282248
v 0.259104 -0.059841 -1.290516
v -0.940704 -0.023245 -0.311241
v -0.812161 -0.191776 -0.916767
v -0.625466 -0.104568 0.788463
v 0.586158 -0.006173 0.799476
v -0.874909 -0.422448 -0.058948
v -0.218616 -0.592727 0.930933
v 0.710688 -0.483909 0.460398
v -0.039546 -0.770060 -0.535560
v 0.507574 -0.751419 -0.140898
v -0.425857 -0.850749 -0.308935
v -0.202882 -1.047768 0.539228
v 0.165771 -0.850654 0.495101
vn 0.3513 0.8006 -0.4853
vn -0.3444 0.9374 -0.0506
vn -0.3605 0.9324 0.0268
vn -0.3442 0.1895 -0.9196
vn 0.6258 -0.7690 0.1307
vn 0.5575 -0.8120 0.1729
vn 0.4834 -0.6643 0.5700
vn -0.5719 -0.5464 0.6118
vn -0.0971 -0.9748 -0.2009
vn -0.7248 -0.6725 -0.1498
vn -0.0002 -0.9419 -0.3358
vn 0.2852 -0.8910 -0.3533
vn 0.8787 -0.4047 0.2531
vn 0.7575 -0.2349 0.6091
vn 0.6549 -0.3164 0.6863
vn -0.6570 -0.3532 0.6660
vn -0.5757 0.4684 -0.6702
vn -0.3453 0.9119 0.2217
vn -0.4725 0.7171 -0.5123
vn 0.3041 0.8971 -0.3207
vn 0.9767 0.1166 -0.1805
vn -0.6717 -0.7406 -0.0195
vn -0.7903 -0.0277 0.6121
vn -0.4177 0.8869 0.1972
vn -0.4099 0.9114 0.0350
vn -0.4616 0.8793 -0.1173
vn -0.5116 0.8351 -0.2021
vn -0.9359 0.1672 -0.3102
vn -0.9797 -0.0486 -0.1945
vn -0.9786 -0.1975 -0.0573
vn -0.9602 -0.2441 -0.1359
vn -0.8481 -0.4929 -0.1946
vn 0.3344 -0.6518 0.6807
vn -0.4974 -0.1661 0.8515
vn 0.1881 0.8193 -0.5417
vn -0.2564 0.9512 0.1714
vn 0.6577 0.4875 0.5743
vn 0.3688 -0.7591 -0.5364
vn -0.1631 -0.6856 -0.7095
vn -0.2268 -0.7288 -0.6460
vn -0.6356 -0.6907 -0.3448
vn 0.3965 -0.9179 0.0142
vn 0.4793 -0.8691 0.1220
vn 0.0189 0.9612 -0.2753
vn 0.2530 0.0638 0.9654
vn 0.6341 0.5990 0.4891
vn -0.1275 0.9750 0.1821
vn 0.2395 0.5017 -0.8312
vn 0.7205 -0.2461 -0.6483
vn -0.8977 -0.2544 0.3597
vn 0.1345 0.0017 0.9909
s 0
f 2//1 12//1 13//1
f 1//2 11//2 15//2
f 1//3 15//3 17//3
f 3//4 20//4 22//4
f 9//5 27//5 29//5
f 29//6 27//6 32//6
f 27//7 8//7 32//7
f 26//8 7//8 31//8
f 31//9 30//9 10//9
f 25//10 6//10 30//10
f 30//11 28//11 10//11
f 28//12 29//12 10//12
f 19//13 27//13 9//13
f 19//14 24//14 27//14
f 24//15 8//15 27//15
f 23//16 7//16 26//16
f 16//17 3//17 22//17
f 17//18 5//18 18//18
f 11//19 3//19 16//19
f 13//20 12//20 14//20
f 2//21 13//21 19//21 9//21
f 30//22 31//22 7//22 25//22
f 23//23 5//23 4//23
f 5//24 17//24 4//24
f 17//25 15//25 4//25
f 15//26 11//26 4//26
f 11//27 16//27 4//27
f 16//28 22//28 4//28
f 22//29 21//29 4//29
f 21//30 25//30 4//30
f 21//31 22//31 25//31
f 22//32 6//32 25//32
f 8//33 26//33 31//33 32//33
f 26//34 5//34 23//34
f 2//35 3//35 11//35 12//35
f 18//36 1//36 17//36
f 19//37 13//37 18//37 24//37
f 9//38 29//38 28//38 20//38
f 20//39 28//39 22//39
f 28//40 30//40 22//40
f 30//41 6//41 22//41
f 10//42 29//42 31//42
f 29//43 32//43 31//43
f 14//44 12//44 11//44 1//44
f 24//45 18//45 8//45
f 13//46 14//46 18//46
f 14//47 1//47 18//47
f 2//48 20//48 3//48
f 2//49 9//49 20//49
f 7//50 23//50 4//50 25//50
f 8//51 18//51 5//51 26//51
