# Blender 4.1.1
# www.blender.org
mtllib asteroid_small.mtl
o asteroid-small
v 0.016831 -0.312721 -0.763538
v 0.824195 -0.299681 0.240798
v 0.152309 -0.383505 0.803423
v -0.985848 -0.356662 -0.249676
v -0.228014 0.631741 -0.183458
v 0.000000 0.000000 0.000000
vn 0.6684 0.5073 -0.5439
vn 0.3965 0.7119 0.5796
vn 0.0198 -0.9987 -0.0468
vn -0.6101 0.4228 0.6701
vn -0.4339 0.3872 -0.8135
vn 0.0807 -0.9954 -0.0519
vt 0.250000 0.490000
vt 0.250000 0.250000
vt 0.490000 0.250000
vt 0.250000 0.010000
vt 0.750000 0.490000
vt 0.750000 0.010000
vt 0.510000 0.250000
vt 0.010000 0.250000
vt 0.990000 0.250000
s 0
usemtl Material.001
f 1/1/1 5/2/1 2/3/1
f 2/3/2 5/2/2 3/4/2
f 1/5/3 3/6/3 4/7/3
f 3/4/4 5/2/4 4/8/4
f 4/8/5 5/2/5 1/1/5
f 1/5/6 2/9/6 3/6/6
