# Blender 3.6.2
# www.blender.org
mtllib asteroid_large.mtl
o asteroid_large
v 0.048662 0.965848 0.033687
v 0.800333 0.393388 -0.861059
v -0.088775 0.519891 -1.040864
v -1.074153 0.479376 0.235565
v -0.478850 0.587733 1.009138
v -0.757475 -0.451198 -0.497953
v -0.662860 -0.656034 0.459149
v 0.272594 -0.417912 0.908852
v 0.984390 -0.399845 -0.355380
v 0.026115 -0.957346 -0.010218
v -0.167911 0.857729 -0.495011
v 0.469518 0.847023 -0.352192
v 0.875793 0.767612 -0.189077
v 0.442586 1.009385 0.076472
v -0.383491 0.801633 -0.066980
v -0.859681 0.450397 -0.427178
v -0.324146 0.813398 0.322026
v 0.007743 0.799074 0.897826
v 1.043368 0.127018 0.282248
v 0.259104 -0.059841 -1.290516
v -0.940704 -0.023245 -0.311241
v -0.812161 -0.191776 -0.916767
v -0.625466 -0.104568 0.788463
v 0.586158 -0.006173 0.799476
v -0.874909 -0.422448 -0.058948
v -0.218616 -0.592727 0.930933
v 0.710688 -0.483909 0.460398
v -0.039546 -0.770060 -0.535560
v 0.507574 -0.751419 -0.140898
v -0.425857 -0.850749 -0.308935
v -0.202882 -1.047768 0.539228
v 0.165771 -0.850654 0.495101
vn 0.3513 0.8006 -0.4853
vn -0.3444 0.9374 -0.0506
vn -0.3605 0.9324 0.0268
vn -0.3442 0.1895 -0.9196
vn 0.6258 -0.7690 0.1307
vn 0.5575 -0.8120 0.1729
vn 0.4834 -0.6643 0.5700
vn -0.5719 -0.5464 0.6118
vn -0.0971 -0.9748 -0.2009
vn -0.7248 -0.6725 -0.1498
vn -0.0002 -0.9419 -0.3358
vn 0.2852 -0.8910 -0.3533
vn 0.8787 -0.4047 0.2531
vn 0.7575 -0.2349 0.6091
vn 0.6549 -0.3164 0.6863
vn -0.6570 -0.3532 0.6660
vn -0.5757 0.4684 -0.6702
vn -0.3453 0.9119 0.2217
vn -0.4725 0.7171 -0.5123
vn 0.3041 0.8971 -0.3207
vn 0.9779 0.1158 -0.1743
vn -0.6999 -0.7133 -0.0351
vn -0.7903 -0.0277 0.6121
vn -0.4177 0.8869 0.1972
vn -0.4099 0.9114 0.0350
vn -0.4616 0.8793 -0.1173
vn -0.5116 0.8351 -0.2021
vn -0.9359 0.1672 -0.3102
vn -0.9797 -0.0486 -0.1945
vn -0.9786 -0.1975 -0.0573
vn -0.9602 -0.2441 -0.1359
vn -0.8481 -0.4929 -0.1946
vn 0.2783 -0.6988 0.6590
vn -0.4974 -0.1661 0.8515
vn 0.2268 0.7956 -0.5618
vn -0.2564 0.9512 0.1714
vn 0.5239 0.5895 0.6149
vn 0.3674 -0.7455 -0.5560
vn -0.1631 -0.6856 -0.7095
vn -0.2268 -0.7288 -0.6460
vn -0.6356 -0.6907 -0.3448
vn 0.3965 -0.9179 0.0142
vn 0.4793 -0.8691 0.1220
vn -0.0642 0.9319 -0.3570
vn 0.2530 0.0638 0.9654
vn 0.6341 0.5990 0.4891
vn -0.1275 0.9750 0.1821
vn 0.2395 0.5017 -0.8312
vn 0.7205 -0.2461 -0.6483
vn -0.9368 -0.1303 0.3247
vn 0.0633 -0.0521 0.9966
vn 0.9753 0.1174 -0.1872
vn -0.6477 -0.7619 -0.0067
vn 0.3995 -0.5901 0.7016
vn 0.1282 0.8515 -0.5084
vn 0.7076 0.4408 0.5523
vn 0.3718 -0.7958 -0.4779
vn 0.0670 0.9718 -0.2262
vn -0.8719 -0.3150 0.3748
vn 0.2009 0.0526 0.9782
vt 0.272728 0.157461
vt 0.318182 0.078731
vt 0.363637 0.157461
vt 0.909091 0.000000
vt 0.954545 0.078731
vt 0.863636 0.078731
vt 0.727273 0.000000
vt 0.772727 0.078731
vt 0.681818 0.078731
vt 0.090910 0.157461
vt 0.136365 0.236191
vt 0.045455 0.236191
vt 0.363637 0.314921
vt 0.454546 0.314921
vt 0.409092 0.393651
vt 0.500000 0.393651
vt 0.545455 0.314921
vt 0.636364 0.314921
vt 0.727273 0.314921
vt 0.681818 0.393651
vt 0.772727 0.393651
vt 0.863636 0.393651
vt 0.818182 0.472382
vt 0.818182 0.314921
vt 0.909091 0.314921
vt 0.045455 0.393651
vt 0.136365 0.393651
vt 0.090910 0.472382
vt 0.227273 0.393651
vt 0.318182 0.393651
vt 0.272728 0.472382
vt 0.409092 0.236191
vt 0.500000 0.236191
vt 0.681818 0.236191
vt 0.909091 0.157461
vt 1.000000 0.157461
vt 0.954545 0.236191
vt 0.590909 0.078731
vt 0.636364 0.157461
vt 0.545455 0.157461
vt 0.409092 0.078731
vt 0.000000 0.000000
vt 0.818182 0.157461
vt 0.863636 0.236191
vt 0.000000 0.314921
vt 0.590909 0.393651
vt 0.227273 0.078731
vt 0.454546 0.472382
vt 0.545455 0.000000
vt 0.500000 0.078731
vt 0.136365 0.078731
s 0
usemtl Material.001
f 2/1/1 12/2/1 13/3/1
f 1/4/2 11/5/2 15/6/2
f 1/7/3 15/8/3 17/9/3
f 3/10/4 20/11/4 22/12/4
f 9/13/5 27/14/5 29/15/5
f 29/15/6 27/14/6 32/16/6
f 27/14/7 8/17/7 32/16/7
f 26/18/8 7/19/8 31/20/8
f 31/21/9 30/22/9 10/23/9
f 25/24/10 6/25/10 30/22/10
f 30/26/11 28/27/11 10/28/11
f 28/29/12 29/30/12 10/31/12
f 19/32/13 27/14/13 9/13/13
f 19/32/14 24/33/14 27/14/14
f 24/33/15 8/17/15 27/14/15
f 23/34/16 7/19/16 26/18/16
f 16/35/17 3/36/17 22/37/17
f 17/38/18 5/39/18 18/40/18
f 11/5/19 3/36/19 16/35/19
f 13/3/20 12/2/20 14/41/20
f 13/3/21 9/42/21 2/1/21
f 30/22/22 7/19/22 25/24/22
f 23/34/23 5/39/23 4/42/23
f 5/39/24 17/38/24 4/42/24
f 17/9/25 15/8/25 4/43/25
f 15/6/26 11/5/26 4/43/26
f 11/5/27 16/35/27 4/43/27
f 16/35/28 22/37/28 4/43/28
f 22/37/29 21/44/29 4/43/29
f 21/44/30 25/24/30 4/42/30
f 21/44/31 22/37/31 25/24/31
f 22/12/32 6/45/32 25/24/32
f 26/18/33 32/46/33 8/17/33
f 26/18/34 5/39/34 23/34/34
f 3/36/35 12/47/35 2/1/35
f 18/40/36 1/7/36 17/9/36
f 13/3/37 24/33/37 19/32/37
f 9/13/38 28/42/38 20/11/38
f 20/11/39 28/42/39 22/12/39
f 28/27/40 30/26/40 22/12/40
f 30/26/41 6/45/41 22/12/41
f 10/48/42 29/15/42 31/20/42
f 29/15/43 32/16/43 31/20/43
f 12/2/44 1/49/44 14/41/44
f 24/33/45 18/40/45 8/17/45
f 13/3/46 14/41/46 18/40/46
f 14/50/47 1/49/47 18/40/47
f 2/1/48 20/11/48 3/10/48
f 2/1/49 9/42/49 20/11/49
f 23/34/50 25/24/50 7/19/50
f 8/17/51 5/39/51 26/18/51
f 13/3/52 19/32/52 9/42/52
f 30/22/53 31/21/53 7/19/53
f 26/18/54 31/20/54 32/46/54
f 3/36/55 11/5/55 12/47/55
f 13/3/56 18/40/56 24/33/56
f 9/13/57 29/15/57 28/42/57
f 12/2/58 11/51/58 1/49/58
f 23/34/59 4/42/59 25/24/59
f 8/17/60 18/40/60 5/39/60
