# Blender 3.6.2
# www.blender.org
mtllib ship.mtl
o ship
v -0.000000 0.280000 0.000000
v -0.943968 -0.223010 0.585538
v 0.943968 -0.223010 0.585537
v -0.000000 0.000484 -0.893807
vn -0.5700 0.7842 -0.2452
vn -0.0000 0.7585 0.6516
vn -0.0000 -0.9888 -0.1494
vn 0.5700 0.7842 -0.2452
vt 0.250000 0.490000
vt 0.250000 0.336471
vt 0.457846 0.130000
vt 0.750000 0.490000
vt 0.957846 0.130000
vt 0.542154 0.130000
vt 0.042154 0.130000
s 0
usemtl Material.003
f 1/1/1 4/2/1 2/3/1
f 2/3/3 4/2/3 3/7/3
f 3/7/4 4/2/4 1/1/4
usemtl Material
f 1/4/2 2/5/2 3/6/2
